<svg width="128" height="128" viewBox="0 0 128 128" xmlns="http://www.w3.org/2000/svg">
  <rect width="128" height="128" rx="28" fill="#16150f"/>
  <g transform="translate(34,30) scale(2.5)" fill="none" stroke="#2742ff" stroke-width="1.6" stroke-linejoin="round" stroke-linecap="round">
    <path d="M9 3a3 3 0 0 0-3 3 3 3 0 0 0-2 5.2A3 3 0 0 0 6 16a3 3 0 0 0 3 3 3 3 0 0 0 3-1.5V4.5A3 3 0 0 0 9 3z"/>
    <path d="M15 3a3 3 0 0 1 3 3 3 3 0 0 1 2 5.2A3 3 0 0 1 18 16a3 3 0 0 1-3 3 3 3 0 0 1-3-1.5V4.5A3 3 0 0 1 15 3z"/>
  </g>
</svg>
